<svg width="59" height="59" viewBox="0 0 1010 1129" fill="none" xmlns="http://www.w3.org/2000/svg">
<path d="M827.12 528.301C815.869 520.657 800.554 523.809 792.897 535.052C748.34 602.11 653.799 605.708 648.866 605.708C647.95 605.708 647.504 605.708 646.611 605.708C530.015 605.708 485.458 705.155 483.649 709.224C478.247 721.807 484.095 736.226 496.262 741.612C499.41 742.976 503.004 743.87 506.174 743.87C515.617 743.87 524.613 738.46 528.676 729.028C529.123 728.111 559.728 659.712 638.508 655.22V782.562C635.361 810.034 622.301 831.626 599.353 847.832C575.489 864.485 543.521 873.023 504.366 873.023C457.554 873.023 419.291 856.817 390.917 824.876C362.12 792.911 347.722 747.468 347.722 688.972L348.168 548.553C350.423 496.807 364.375 455.857 390.917 426.597C419.737 394.633 457.554 378.45 504.366 378.45C543.521 378.45 575.489 386.988 599.353 403.641C623.194 420.294 636.699 443.25 638.954 472.957C638.954 473.851 638.954 475.191 638.954 476.109C638.954 493.208 652.906 507.156 670.006 507.156C687.129 507.156 701.081 493.208 701.081 476.109C701.081 475.191 701.081 473.851 701.081 472.957C696.571 428.385 676.324 393.292 639.847 366.737C603.393 340.182 557.919 327.128 503.004 327.128C437.753 327.128 385.068 348.743 345.021 391.481C307.204 431.537 287.404 484.2 285.149 549C285.149 553.492 284.703 558.008 284.703 562.501L285.149 688.972H284.703C284.703 760.523 304.95 817.678 345.021 860.439C385.068 903.176 437.753 924.792 503.004 924.792C557.919 924.792 603.393 911.738 639.847 885.183C673.177 860.886 692.978 828.921 699.719 789.312L701.081 648.022C742.045 638.12 797.853 615.611 832.968 562.501C841.964 551.258 838.817 535.946 827.12 528.301V528.301Z" fill="#007CB9"/>
<path d="M731.733 237.09C678.884 203.455 627.116 190.284 576.17 156.766C544.742 136.421 500.983 84.6044 464.389 40.7616C457.342 111.042 437.025 140.49 411.563 159.895C359.795 200.609 327.287 212.817 282.565 237.231C245.031 257.459 40.7053 378.474 40.7053 641.013C40.7053 724.865 63.2072 801.661 101.822 867.331C184.055 1007.35 339.477 1096.89 506.127 1096.89C751.088 1096.89 963.422 918.888 963.422 649.152C963.422 501.135 903.386 397.479 843.773 330.844C794.87 276.041 746.367 246.193 731.733 237.09V237.09ZM855.282 356.082C921.942 439.675 955.836 538.18 955.836 649.152C955.836 713.457 943.622 774.259 919.523 829.886C896.622 882.525 863.691 929.19 821.553 968.682C738.216 1046.56 626.317 1089.44 506.268 1089.44C446.913 1089.44 388.662 1078.03 333.112 1055.64C278.502 1033.67 229.458 1002.2 187.038 962.026C97.4767 877.374 48.2921 763.392 48.2921 641.013C48.2921 532.065 83.6656 435.182 153.309 353.095C206.557 290.412 264.009 255.695 286.088 243.746C296.94 237.913 306.946 232.621 316.717 227.611C347.323 211.852 376.331 196.94 416.167 165.728C437.424 149.592 460.067 123.931 469.673 58.9432C503.285 98.9757 542.159 143.877 571.989 163.164C598.39 180.664 625.495 192.871 651.638 204.678C676.442 215.804 702.044 227.47 727.388 243.605L728.327 244.146C802.715 290.412 842.293 339.947 855.282 356.082V356.082Z" fill="black" stroke="#007CB9" stroke-width="40" stroke-miterlimit="1.41421" stroke-linejoin="round"/>
</svg>
